<?xml version="1.0" encoding="iso-8859-1"?>
<!-- Generator: Adobe Illustrator 19.0.0, SVG Export Plug-In . SVG Version: 6.00 Build 0)  -->
<svg xmlns="http://www.w3.org/2000/svg" xmlns:xlink="http://www.w3.org/1999/xlink" version="1.1" id="Capa_1" x="0px" y="0px" viewBox="0 0 512 512" style="enable-background:new 0 0 512 512;" xml:space="preserve" width="512px" height="512px">
<g>
	<g>
		<path d="M331.591,325.888c-6.459,13.396-13.934,26.323-22.386,38.692c7.323,21.352,19.463,40.915,35.881,57.333    c14.269,14.268,30.91,25.309,49.038,32.764c7.569-7.572,14.515-15.765,20.768-24.487    C369.514,415.703,335.761,374.947,331.591,325.888z" fill="#204a87"/>
	</g>
</g>
<g>
	<g>
		<path d="M391.264,315.616V195.382c0-74.585-60.68-135.264-135.264-135.264s-135.264,60.68-135.264,135.264    c0,33.149-26.969,60.117-60.117,60.117v30.059c49.723,0,90.176-40.453,90.176-90.176c0-58.01,47.195-105.205,105.206-105.205    s105.206,47.195,105.206,105.205v120.235c0,42.71,29.846,78.579,69.777,87.849c4.53-9.091,8.38-18.576,11.466-28.398    C413.522,370.738,391.264,345.73,391.264,315.616z" fill="#204a87"/>
	</g>
</g>
<g>
	<g>
		<path d="M323.831,443.168c-10.068-10.068-18.92-21.276-26.309-33.312l-10.006-16.296l-14.307,14.412    c-34.521,34.521-75.991,59.586-121.263,73.941c11.64,7.353,24.1,13.518,37.22,18.309c33.822-14.252,65.251-34.193,93.072-59.364    c6.177,8.321,12.98,16.206,20.339,23.564c11.136,11.136,23.303,20.867,36.285,29.109c10.523-4.949,20.541-10.799,29.94-17.469    C352.408,467.608,337.244,456.581,323.831,443.168z" fill="#204a87"/>
	</g>
</g>
<g>
	<g>
		<path d="M256,0C148.267,0,60.618,87.648,60.618,195.382v30.059c16.574,0,30.059-13.484,30.059-30.059    c0-91.159,74.164-165.323,165.323-165.323s165.323,74.164,165.323,165.323v120.235c0,15.85,12.334,28.865,27.908,29.974    c1.412-9.455,2.151-19.128,2.151-28.972V195.382C451.382,87.648,363.733,0,256,0z" fill="#204a87"/>
	</g>
</g>
<g>
	<g>
		<path d="M256,120.235c-41.436,0-75.147,33.711-75.147,75.147c0,66.297-53.937,120.235-120.235,120.235v1.002    c0,9.863,0.741,19.556,2.159,29.031c39.366-0.55,76.274-16.108,104.137-43.971c28.371-28.372,43.997-66.122,43.997-106.297    c0-24.862,20.227-45.088,45.088-45.088s45.088,20.227,45.088,45.088c0,119.534-87.674,218.963-202.092,237.394    c6.964,9.387,14.749,18.127,23.246,26.121c48.753-11.285,93.483-35.95,129.711-72.179    c51.068-51.069,79.193-119.019,79.193-191.336C331.147,153.946,297.436,120.235,256,120.235z" fill="#204a87"/>
	</g>
</g>
<g>
	<g>
		<path d="M281.321,485.678c-0.914-0.913-1.821-1.835-2.72-2.764c-13.646,10.381-27.972,19.74-42.901,28.036    c6.674,0.692,13.445,1.051,20.3,1.051c16.681,0,32.878-2.106,48.344-6.058C296.278,499.689,288.571,492.926,281.321,485.678z" fill="#204a87"/>
	</g>
</g>
<g>
	<g>
		<path d="M256,180.352c-8.3,0-15.029,6.729-15.029,15.029c0,96.403-76.031,175.381-171.277,180.125    c3.209,10.132,7.223,19.908,11.968,29.255c48.289-4.755,93.049-25.839,127.773-60.563c39.72-39.721,61.594-92.572,61.594-148.817    C271.029,187.081,264.3,180.352,256,180.352z" fill="#204a87"/>
	</g>
</g>
<g>
</g>
<g>
</g>
<g>
</g>
<g>
</g>
<g>
</g>
<g>
</g>
<g>
</g>
<g>
</g>
<g>
</g>
<g>
</g>
<g>
</g>
<g>
</g>
<g>
</g>
<g>
</g>
<g>
</g>
</svg>
